<?xml version="1.0" encoding="utf-8"?>
<!-- Generator: Adobe Illustrator 25.2.1, SVG Export Plug-In . SVG Version: 6.00 Build 0)  -->
<svg version="1.1" id="Layer_1" xmlns="http://www.w3.org/2000/svg" xmlns:xlink="http://www.w3.org/1999/xlink" x="0px" y="0px"
	 viewBox="0 0 475 801.1" style="enable-background:new 0 0 475 801.1;" xml:space="preserve">
<style type="text/css">
	.st0{opacity:0.5;fill:#4BBED2;enable-background:new    ;}
</style>
<path class="st0" d="M-81-280.4C-92.4-196.9-63.2-106.8-21.4-35C23.5,41.5,94.3,91.1,173.3,128.1c74.7,35.4,154.4,60.7,224.1,105.4
	c34.7,22,66.1,50.3,88.5,85.1c24.1,37.5,36.6,80,46.2,123.2c19.7,87.3,30,175.2,75.3,253.9c42.6,74.5,115,136.3,202,147.5
	c84.5,11,162.2-28.2,210.3-97c48.4-68.9,57.1-155.5,41.1-236.5c-18.4-93-70.4-175.1-127.5-248.6C878.8,191.2,801.5,119,793.4,25.8
	c-2.8-31.2,2.4-61.9,18.2-88c0.2-0.3,0.6-0.6,0.8-1c29.6-38,63.9-72,101.4-101.7c124.5-82.8,275.1-138.3,339-281.7
	c16.8-37.7,27-80,17.7-121.1c-9.7-42.6-46.2-71.5-82.2-92.1c-73.2-41.4-156.6-41.1-221.6,14.4c-77.2,65.5-117.9,161-161.3,249.6
	C764.3-311.5,715.5-223.5,628-180c-35.7,17.7-76.8,27-116.3,19.9c-38.9-7-71.1-29.1-98.7-56.6c-56.8-57.3-93-132.8-155.5-185
	c-57.6-48.4-132.1-65-204-39.2C-17.5-416.4-70.6-356.3-81-280.4z"/>
<path class="st0" d="M-224.9,1182c28.8,17.6,63.1,21.5,94.3,7.5c18-7.9,33.9-20,50.1-30.9c17.1-11.4,34.5-22.3,52.3-32.7
	c42.3-24.7,87.8-50.4,136.2-60.2c44.1-8.8,89.4-6.6,134.2-9.4c77.4-5.1,170.7-35.9,184.8-124.1c0.1-1.2,0.2-2.4,0.1-3.6
	c1-1.9,1.6-4.2,1.7-6.8c-0.4-71.3-59.7-125.9-120.8-152.5c-70.4-30.6-149.1-35.8-217.3-72.2C56.8,679.1,27.2,655,1,627.3
	c-26.2-27.5-51-57.2-82.3-79.1c-50.6-35.4-131.7-48.1-172.4,9.2c-18.5,25.9-23,57.7-23.1,88.7c-0.2,36.9,5.2,73.9,9.9,110.6
	c5.1,40.1,16.3,81.2,15.3,121.5c-0.7,37.1-21.5,70.6-29.8,106.2C-297.3,1053.4-290.6,1141.6-224.9,1182z"/>
<g>
</g>
<g>
</g>
<g>
</g>
<g>
</g>
<g>
</g>
<g>
</g>
</svg>
