<?xml version="1.0" encoding="utf-8"?>
<!-- Generator: Adobe Illustrator 25.2.1, SVG Export Plug-In . SVG Version: 6.00 Build 0)  -->
<svg version="1.1" id="Layer_1" xmlns="http://www.w3.org/2000/svg" xmlns:xlink="http://www.w3.org/1999/xlink" x="0px" y="0px"
	 viewBox="0 0 1440 980" style="enable-background:new 0 0 1440 980;" xml:space="preserve">
<style type="text/css">
	.st0{opacity:0.5;fill:#38C9D9;enable-background:new    ;}
</style>
<path class="st0" d="M668.2-223.1C656.8-139.6,686-49.5,727.8,22.3c44.9,76.5,115.7,126.1,194.7,163.1
	c74.7,35.4,154.4,60.7,224.1,105.4c34.7,22,66.1,50.3,88.5,85.1c24.1,37.5,36.6,80,46.2,123.2c19.7,87.3,30,175.2,75.3,253.9
	c42.6,74.5,115,136.3,202,147.5c84.5,11,162.2-28.2,210.3-97C1817.3,734.6,1826,648,1810,567c-18.4-93-70.4-175.1-127.5-248.6
	c-54.5-69.9-131.8-142.1-139.9-235.3c-2.8-31.2,2.4-61.9,18.2-88c0.2-0.3,0.6-0.6,0.8-1c29.6-38,63.9-72,101.4-101.7
	c124.5-82.8,275.1-138.3,339-281.7c16.8-37.7,27-80,17.7-121.1c-9.7-42.6-46.2-71.5-82.2-92.1c-73.2-41.4-156.6-41.1-221.6,14.4
	c-77.2,65.5-117.9,161-161.3,249.6c-41.1,84.3-89.9,172.3-177.4,215.8c-35.7,17.7-76.8,27-116.3,19.9c-38.9-7-71.1-29.1-98.7-56.6
	c-56.8-57.3-93-132.8-155.5-185c-57.6-48.4-132.1-65-204-39.2C731.7-359.1,678.6-299,668.2-223.1z"/>
</svg>
