<?xml version="1.0" encoding="utf-8"?>
<!-- Generator: Adobe Illustrator 25.2.1, SVG Export Plug-In . SVG Version: 6.00 Build 0)  -->
<svg version="1.1" id="Layer_1" xmlns="http://www.w3.org/2000/svg" xmlns:xlink="http://www.w3.org/1999/xlink" x="0px" y="0px"
	 viewBox="0 0 1440 980" style="enable-background:new 0 0 1440 980;" xml:space="preserve">
<style type="text/css">
	.st0{opacity:0.5;fill:#38C9D9;enable-background:new    ;}
</style>
<path class="st0" d="M-146.8,1277.9c28.8,17.6,63.1,21.5,94.3,7.5c18-7.9,33.9-20,50.1-30.9c17.1-11.4,34.5-22.3,52.3-32.7
	c42.3-24.7,87.8-50.4,136.2-60.2c44.1-8.8,89.4-6.6,134.2-9.4c77.4-5.1,170.7-35.9,184.8-124.1c0.1-1.2,0.2-2.4,0.1-3.6
	c1-1.9,1.6-4.2,1.7-6.8c-0.4-71.3-59.7-125.9-120.8-152.5C315.7,834.6,237,829.4,168.8,793c-33.9-18-63.5-42.1-89.7-69.8
	c-26.2-27.5-51-57.2-82.3-79.1c-50.6-35.4-131.7-48.1-172.4,9.2c-18.5,25.9-23,57.7-23.1,88.7c-0.2,36.9,5.2,73.9,9.9,110.6
	c5.1,40.1,16.3,81.2,15.3,121.5c-0.7,37.1-21.5,70.6-29.8,106.2C-219.2,1149.3-212.5,1237.5-146.8,1277.9z"/>
</svg>
