<?xml version="1.0" encoding="utf-8"?>
<!-- Generator: Adobe Illustrator 25.2.1, SVG Export Plug-In . SVG Version: 6.00 Build 0)  -->
<svg version="1.1" id="Layer_1" xmlns="http://www.w3.org/2000/svg" xmlns:xlink="http://www.w3.org/1999/xlink" x="0px" y="0px"
	 viewBox="0 0 1440 980" style="enable-background:new 0 0 1440 980;" xml:space="preserve">
<style type="text/css">
	.st0{opacity:0.5;fill:#38C9D9;enable-background:new    ;}
	.st1{opacity:0.5;fill:#01838C;enable-background:new    ;}
</style>
<path class="st0" d="M-146.8,1277.9c28.8,17.6,63.1,21.5,94.3,7.5c18-7.9,33.9-20,50.1-30.9c17.1-11.4,34.5-22.3,52.3-32.7
	c42.3-24.7,87.8-50.4,136.2-60.2c44.1-8.8,89.4-6.6,134.2-9.4c77.4-5.1,170.7-35.9,184.8-124.1c0.1-1.2,0.2-2.4,0.1-3.6
	c1-1.9,1.6-4.2,1.7-6.8c-0.4-71.3-59.7-125.9-120.8-152.5C315.7,834.6,237,829.4,168.8,793c-33.9-18-63.5-42.1-89.7-69.8
	c-26.2-27.5-51-57.2-82.3-79.1c-50.6-35.4-131.7-48.1-172.4,9.2c-18.5,25.9-23,57.7-23.1,88.7c-0.2,36.9,5.2,73.9,9.9,110.6
	c5.1,40.1,16.3,81.2,15.3,121.5c-0.7,37.1-21.5,70.6-29.8,106.2C-219.2,1149.3-212.5,1237.5-146.8,1277.9z"/>
<path class="st0" d="M668.2-223.1C656.8-139.6,686-49.5,727.8,22.3c44.9,76.5,115.7,126.1,194.7,163.1
	c74.7,35.4,154.4,60.7,224.1,105.4c34.7,22,66.1,50.3,88.5,85.1c24.1,37.5,36.6,80,46.2,123.2c19.7,87.3,30,175.2,75.3,253.9
	c42.6,74.5,115,136.3,202,147.5c84.5,11,162.2-28.2,210.3-97c48.4-68.9,57.1-155.5,41.1-236.5c-18.4-93-70.4-175.1-127.5-248.6
	c-54.5-69.9-131.8-142.1-139.9-235.3c-2.8-31.2,2.4-61.9,18.2-88c0.2-0.3,0.6-0.6,0.8-1c29.6-38,63.9-72,101.4-101.7
	c124.5-82.8,275.1-138.3,339-281.7c16.8-37.7,27-80,17.7-121.1c-9.7-42.6-46.2-71.5-82.2-92.1c-73.2-41.4-156.6-41.1-221.6,14.4
	c-77.2,65.5-117.9,161-161.3,249.6c-41.1,84.3-89.9,172.3-177.4,215.8c-35.7,17.7-76.8,27-116.3,19.9c-38.9-7-71.1-29.1-98.7-56.6
	c-56.8-57.3-93-132.8-155.5-185c-57.6-48.4-132.1-65-204-39.2C731.7-359.1,678.6-299,668.2-223.1z"/>
<path class="st1" d="M-1128.4,583.1c34.2,59.3,89.2,105.1,151.1,134.1c61.5,28.9,131.4,44.5,199.3,44.4c32.3,0,64.6-5.5,94.2-16.5
	c0.2-0.1,0.3,0.2,0.6,0.1c5.9-3.3,12.1-6.2,18.4-8.3l0.2-0.1c21.5-10.6,41.3-24.8,58.2-42.7c7.9-5.7,14.6-14.2,19.8-21.2
	c2-2.7,3.6-5.4,5.3-8c0.2-0.3,0.4-0.4,0.4-0.4c9.9-13.7,17.9-29.5,25-44.6c4.5-9.5,8.1-19.6,10.9-29.8c15.8-38.2,22-80.3,16-121.8
	c-9.2-63.9-46.3-121.2-103.6-152.2c-13.3-7.1-27.3-12.7-42-16.3c-17.3-4.5-35.2-5.2-52.7-8.3c-27.9-5.3-52.3-19.9-74.3-37
	c-43.7-33.8-83-78-138.4-92.1c-58.7-15.1-120.3,9.8-162.7,50.5c-46.3,44.4-65.9,108.9-69.1,171.5
	C-1175,451.3-1162.6,524.1-1128.4,583.1z M-1015.6,666.8c1,0.6,2.2,1.1,3.5,1.7c0.2,0.7,0.7,1.3,1.2,1.9c-1.6-1-3-2-4.7-3.4
	C-1015.8,667.1-1015.6,666.8-1015.6,666.8z"/>
<path class="st1" d="M-924.9-624c-27.6,19.4-44.8,49.3-44.3,83.6c0.1,19.6,4.9,39.1,8.5,58.2c3.7,20.2,6.8,40.5,9.2,61
	c5.9,48.6,11.4,100.6,1.2,148.9c-9.5,44-29.4,84.7-44.5,126.9c-26,73.1-34.7,171,40.7,218.9c1.1,0.5,2.2,1.2,3.2,1.5
	c1.3,1.6,3.2,3.1,5.6,4.3c65.7,27.9,139.3-4.9,187.9-50.5c56-52.5,92-122.7,152.4-170.9c30-24,63.8-41.6,99.6-54.7
	c35.6-13.1,72.7-24.1,105.2-44.2c52.6-32.5,96.4-101.9,59.9-162c-16.4-27.3-43.9-44-72.2-56.4c-33.8-14.8-69.9-24.5-105.4-34.8
	c-38.8-11.2-81-17.3-117.7-34.1c-33.8-15.3-56.2-47.7-85.7-69.5C-778.2-639.5-861.8-668.3-924.9-624z"/>
</svg>
