<?xml version="1.0" encoding="utf-8"?>
<!-- Generator: Adobe Illustrator 25.2.1, SVG Export Plug-In . SVG Version: 6.00 Build 0)  -->
<svg version="1.1" id="Layer_1" xmlns="http://www.w3.org/2000/svg" xmlns:xlink="http://www.w3.org/1999/xlink" x="0px" y="0px"
	 viewBox="0 0 1440 980" style="enable-background:new 0 0 1440 980;" xml:space="preserve">
<style type="text/css">
	.st0{fill:#85F7FF;}
	.st1{fill:#75DAE6;}
	.st2{fill:#5CA5FF;}
	.st3{fill:#BC7EDD;}
</style>
<path class="st0" d="M573.4,462.5c-20.4-26.9-50.9-43-85.1-41.3c-19.6,0.8-38.9,6.3-57.9,10.6c-20.1,4.4-40.2,8.2-60.6,11.4
	c-48.4,7.6-100.1,15-148.8,6.5c-44.3-7.9-85.7-26.4-128.4-40c-74-23.4-172.1-28.6-217.3,48.4c-0.5,1.1-1.1,2.2-1.4,3.3
	c-1.6,1.4-3,3.3-4.1,5.7c-25.6,66.6,9.8,139,57.1,186c54.4,54.1,125.9,87.6,176.2,146.3c25,29.1,43.8,62.3,58.2,97.6
	c14.4,35.1,26.7,71.8,47.9,103.6c34.3,51.4,105.2,92.7,164,54.1c26.7-17.4,42.4-45.4,53.8-74.2c13.6-34.3,22-70.7,31-106.6
	c9.8-39.2,14.4-81.6,29.9-118.8c14.1-34.3,45.7-57.9,66.4-88.1C594.1,608.6,619.9,524,573.4,462.5z"/>
<path class="st1" d="M1141.2,1155.2c-15.3-20.7-31.6-40.7-47.5-61.1c-16.2-20.8-33-41.9-45.9-65c-6-10.8-11.2-22.8-11.3-35.3
	c-0.1-11.7,4.9-22.2,12.5-30.9c7.3-8.3,16-15.2,24.7-22c8.9-7,17.8-14,26.6-21.2c34-27.9,66.9-58.7,89.6-96.8
	c23.5-39.3,32.4-84.2,25.3-129.5c-14.4-92-87.2-162.7-171.8-194.8c-47.8-18.1-99.9-24.3-150.8-21.3c-23.8,1.4-48,4.3-71.2,10.1
	c-19.4,4.8-38.8,12-55.2,23.5c-11.6,8.2-21.3,18.4-27.8,30.8c-3.7,5.6-6.7,11.7-9.1,18.2c-0.2,0.4-0.3,0.9-0.5,1.4
	c-4,7.9-7.2,16.3-10,24.7c-12.4,28.7-14.2,61.6-3.9,91.6c7.8,22.7,20.9,43,28.9,65.6c8.1,23.1,8,46.8,0.8,70.2
	c-14.6,47.3-50.2,83.3-77.2,123.5c-25.2,37.5-46.6,87.3-26.1,131.7c1.2,2.7,2.7,5.3,4.2,7.8c0.7,1.2,1.4,2.3,2.1,3.4
	c0.2,0.3,0.4,0.5,0.6,0.7c9.6,13.8,23.2,24.5,37.3,33.6c22,14.1,45.3,26.3,68,39.2c23.3,13.3,46.8,26.3,70,39.8
	c18.5,10.8,37.8,22.9,49.8,41.2c14,21.2,13.7,47,13.1,71.4c-0.5,21.7-0.4,43.4,2.8,64.9c3.1,20.5,9.2,41,20.8,58.3
	c12.2,18.2,29.7,31.1,49.9,39.4c21.1,8.6,44.1,12.7,66.7,14.6c21.4,1.8,43,1.1,64.1-2.8c42.1-7.8,80.3-30.7,101.6-68.6
	c12.2-21.8,18.5-46.3,19.8-71.1c0.1-0.9,0.2-1.8,0.1-2.7c0.7-17.6-1.1-35.4-5-52.4C1196.3,1237.3,1170.1,1194.4,1141.2,1155.2z
	 M1198.7,780.3c-1.2,3.7-2.6,7.3-4.1,10.9C1196.1,787.6,1197.4,783.9,1198.7,780.3z M678.8,958.2c0-0.2-0.1-0.5-0.1-0.7
	c0.2-0.5,0.4-1.1,0.6-1.6C679.1,956.6,679,957.4,678.8,958.2z M683.2,982.2c-0.1-0.1-0.3-0.3-0.4-0.4c0.2-0.4,0.3-0.8,0.5-1.2
	c0.1,0.5,0.2,0.9,0.5,1.4c0.2,0.5,0.5,0.9,0.7,1.4C684,983,683.6,982.6,683.2,982.2z M1093.3,683.7c1.8-1.5,3.7-3,5.5-4.5
	c0,0,0,0.1,0,0.1L1093.3,683.7z M1094.9,800.2c0.1-0.7,0.2-1.3,0.3-2c0.1,0.4,0.2,0.9,0.3,1.3
	C1095.3,799.7,1095.1,799.9,1094.9,800.2z M1144.5,655.5c0.2,0.3,0.3,0.5,0.5,0.8c-0.2,0-0.5-0.1-0.7-0.1c-0.2-0.1-0.3-0.1-0.5-0.2
	C1144,655.9,1144.2,655.7,1144.5,655.5z M884.6,496.2C884.6,496.2,884.6,496.2,884.6,496.2C884.5,496.2,884.5,496.2,884.6,496.2
	c-0.6,0.2-1.1,0.4-1.6,0.7c-0.1-0.1-0.2-0.2-0.4-0.3C883.3,496.4,883.9,496.3,884.6,496.2z M759.5,856.5c0.1-0.5,0.3-1,0.4-1.4
	c0,0.7,0.1,1.4,0.1,2.1C759.8,856.9,759.6,856.7,759.5,856.5z"/>
<path class="st2" d="M858.9,134.9c-1.6,47.7,20,96.7,47.7,134.7c29.7,40.5,72.4,64.3,119,80.6c44.1,15.6,90.4,25.3,132.2,46.4
	c20.8,10.4,40.1,24.5,54.7,42.8c15.7,19.7,25.2,42.9,33.1,66.7c16.1,48,27,96.9,57,138.6c28.3,39.5,72.6,70.1,122.2,71.4
	c48.2,1.3,89.7-25.2,112.8-66.7c23.3-41.6,23.2-90.8,9.5-135.5c-15.7-51.3-49.7-94.5-86.1-132.6c-34.7-36.2-82.4-72.4-92.3-124.4
	c-3.4-17.4-2.2-35,5.2-50.6c0.1-0.2,0.3-0.4,0.4-0.6c14.5-23.1,31.8-44.2,51.2-63.1c65.3-53.8,146.9-93.7,174.6-178.1
	c7.3-22.2,10.6-46.6,3-69.2c-7.9-23.4-30.1-37.6-51.6-47.1c-43.6-19.1-90.5-14.1-123.9,20.9c-39.7,41.3-57.1,97.4-76.4,149.8
	c-18.3,49.8-40.7,102.2-87.4,131.7c-19.1,12-41.7,19.6-64.3,17.9c-22.3-1.7-41.7-12.3-58.8-26.2c-35.3-29-60-69.4-98.2-95.2
	c-35.2-23.9-78.1-29-117.1-10.3C886.8,54.7,860.4,91.6,858.9,134.9z"/>
<path class="st3" d="M782.7-86c-15.8-78.7-59.7-150.3-117.5-205.7c-57.5-55.2-129.3-98.8-204.8-124.1c-35.9-12.1-73.8-18.1-110.9-17
	c-0.3,0-0.3-0.3-0.6-0.3c-7.8,1.4-15.8,2.3-23.6,2.3H325c-27.9,3.7-55.2,12.1-80.7,25.6c-10.9,3.4-21.5,10.3-29.9,16.1
	c-3.2,2.3-6,4.6-8.9,6.9c-0.3,0.3-0.6,0.3-0.6,0.3c-16.1,11.5-31,26.1-44.5,40.2c-8.6,8.9-16.4,18.7-23.3,29
	c-31.9,36.5-54.6,81-63.5,129.3c-13.8,74.4,6,152,58,208c12.1,12.9,25.6,24.4,40.5,33.9c17.5,11.5,37.1,19,55.4,29
	c29,16.4,50.6,41.7,68.7,69c35.9,54,62.9,117.8,119.2,154.3c59.5,38.8,137.3,34.2,199.7,4.9c68.1-31.9,114.1-96.2,141.1-164.6
	C785,78,798.5-7.6,782.7-86z M688.8-221.3c-0.9-1.1-2-2-3.2-3.2c0-0.9-0.3-1.7-0.6-2.6c1.4,1.7,2.6,3.4,4,5.5
	C689.1-221.6,688.8-221.3,688.8-221.3z"/>
</svg>
