<?xml version="1.0" encoding="utf-8"?>
<!-- Generator: Adobe Illustrator 25.2.1, SVG Export Plug-In . SVG Version: 6.00 Build 0)  -->
<svg version="1.1" id="Layer_1" xmlns="http://www.w3.org/2000/svg" xmlns:xlink="http://www.w3.org/1999/xlink" x="0px" y="0px"
	 viewBox="0 0 80 80" style="enable-background:new 0 0 80 80;" xml:space="preserve">
<style type="text/css">
	.st0{fill:#85F7FF;}
	.st1{fill:#A647FF;}
</style>
<path class="st0" d="M78.7,36c-1.7-8-6.5-15.3-12.9-21C59.5,9.4,51.7,4.9,43.4,2.4c-3.9-1.2-8.1-1.8-12.2-1.7c0,0,0,0-0.1,0
	c-0.9,0.1-1.7,0.2-2.6,0.2h0c-3.1,0.4-6,1.2-8.8,2.6c-1.2,0.3-2.4,1.1-3.3,1.6c-0.4,0.2-0.7,0.5-1,0.7c0,0-0.1,0-0.1,0
	C13.6,7,12,8.5,10.5,9.9c-0.9,0.9-1.8,1.9-2.6,3c-3.5,3.7-6,8.3-7,13.2c-1.5,7.6,0.7,15.5,6.4,21.2c1.3,1.3,2.8,2.5,4.4,3.5
	c1.9,1.2,4.1,1.9,6.1,3c3.2,1.7,5.5,4.3,7.5,7c3.9,5.5,6.9,12,13.1,15.8c6.5,4,15,3.5,21.9,0.5c7.5-3.3,12.5-9.8,15.5-16.8
	C79,52.8,80.5,44,78.7,36z M68.4,22.2c-0.1-0.1-0.2-0.2-0.4-0.3c0-0.1,0-0.2-0.1-0.3C68.2,21.8,68.3,22,68.4,22.2
	C68.5,22.2,68.4,22.2,68.4,22.2z"/>
<g>
	<path class="st1" d="M28.4,31.7v3.7h7.2v4.8h-7.2v4.1h8.2v5H22.1V26.7h14.4v5H28.4z"/>
	<path class="st1" d="M40.3,32c0.9-1.7,2.2-3.1,4-4.1c1.7-1,3.7-1.5,5.9-1.5c2.8,0,5.2,0.8,7.1,2.3c1.9,1.5,3.2,3.5,3.7,6.1h-6.8
		c-0.4-0.9-1-1.5-1.7-2c-0.7-0.4-1.5-0.7-2.5-0.7c-1.5,0-2.6,0.5-3.5,1.6c-0.9,1-1.3,2.4-1.3,4.1c0,1.7,0.4,3.1,1.3,4.2
		c0.9,1,2,1.6,3.5,1.6c0.9,0,1.8-0.2,2.5-0.7c0.7-0.4,1.3-1.1,1.7-2h6.8c-0.6,2.6-1.8,4.6-3.7,6.1s-4.3,2.3-7.1,2.3
		c-2.2,0-4.2-0.5-5.9-1.5c-1.7-1-3-2.3-4-4.1c-0.9-1.7-1.4-3.7-1.4-6C38.9,35.7,39.3,33.7,40.3,32z"/>
</g>
</svg>
