<?xml version="1.0" encoding="utf-8"?>
<!-- Generator: Adobe Illustrator 25.2.1, SVG Export Plug-In . SVG Version: 6.00 Build 0)  -->
<svg version="1.1" id="Layer_1" xmlns="http://www.w3.org/2000/svg" xmlns:xlink="http://www.w3.org/1999/xlink" x="0px" y="0px"
	 viewBox="0 0 80 80" style="enable-background:new 0 0 80 80;" xml:space="preserve">
<style type="text/css">
	.st0{fill:#A647FF;}
	.st1{fill:#01838C;}
</style>
<g>
	<path class="st0" d="M-72.6-88v3.7h7.2v4.8h-7.2v4.1h8.2v5h-14.5V-93h14.4v5H-72.6z"/>
	<path class="st0" d="M-60.7-87.7c0.9-1.7,2.2-3.1,4-4.1c1.7-1,3.7-1.5,5.9-1.5c2.8,0,5.2,0.8,7.1,2.3c1.9,1.5,3.2,3.5,3.7,6.1h-6.8
		c-0.4-0.9-1-1.5-1.7-2c-0.7-0.4-1.5-0.7-2.5-0.7c-1.5,0-2.6,0.5-3.5,1.6c-0.9,1-1.3,2.4-1.3,4.1s0.4,3.1,1.3,4.2
		c0.9,1,2,1.6,3.5,1.6c0.9,0,1.8-0.2,2.5-0.7c0.7-0.4,1.3-1.1,1.7-2h6.8c-0.6,2.6-1.8,4.6-3.7,6.1s-4.3,2.3-7.1,2.3
		c-2.2,0-4.2-0.5-5.9-1.5s-3-2.3-4-4.1c-0.9-1.7-1.4-3.7-1.4-6C-62.1-84-61.7-86-60.7-87.7z"/>
</g>
<g>
	<path class="st1" d="M14,32.9v4.6h9v6h-9v5.1h10.2v6.3h-18V26.6h18v6.3H14z"/>
	<path class="st1" d="M36,25.2v29.6h-7.8V25.2H36z"/>
	<path class="st1" d="M48.3,25.2v29.6h-7.8V25.2H48.3z"/>
	<path class="st1" d="M52.7,37.5c0.8-1.7,2-3.1,3.4-4c1.5-0.9,3.1-1.4,4.9-1.4c1.5,0,2.9,0.3,4,0.9c1.1,0.6,2,1.4,2.6,2.5v-3.1h7.8
		v22.4h-7.8v-3.1c-0.6,1-1.5,1.9-2.6,2.5c-1.1,0.6-2.5,0.9-4,0.9c-1.8,0-3.4-0.5-4.9-1.4c-1.5-0.9-2.6-2.3-3.4-4
		c-0.8-1.7-1.3-3.8-1.3-6.1C51.5,41.3,51.9,39.3,52.7,37.5z M66.5,40.2c-0.8-0.8-1.8-1.2-2.9-1.2c-1.2,0-2.1,0.4-2.9,1.2
		c-0.8,0.8-1.2,2-1.2,3.4c0,1.4,0.4,2.6,1.2,3.4c0.8,0.8,1.7,1.3,2.9,1.3c1.1,0,2.1-0.4,2.9-1.2c0.8-0.8,1.2-2,1.2-3.4
		C67.6,42.2,67.3,41,66.5,40.2z"/>
</g>
</svg>
